<?xml version="1.0" encoding="UTF-8" standalone="no"?>
<svg
   xmlns:dc="http://purl.org/dc/elements/1.1/"
   xmlns:cc="http://creativecommons.org/ns#"
   xmlns:rdf="http://www.w3.org/1999/02/22-rdf-syntax-ns#"
   xmlns:svg="http://www.w3.org/2000/svg"
   xmlns="http://www.w3.org/2000/svg"
   xmlns:sodipodi="http://sodipodi.sourceforge.net/DTD/sodipodi-0.dtd"
   xmlns:inkscape="http://www.inkscape.org/namespaces/inkscape"
   width="160.83197"
   height="159.53908"
   viewBox="0 0 42.553458 42.21138"
   version="1.1"
   id="svg8"
   inkscape:version="1.0.1 (c497b03c, 2020-09-10)"
   sodipodi:docname="card-scene.svg">
  <defs
     id="defs2" />
  <sodipodi:namedview
     id="base"
     pagecolor="#ffffff"
     bordercolor="#666666"
     borderopacity="1.0"
     inkscape:pageopacity="0"
     inkscape:pageshadow="2"
     inkscape:zoom="3.959798"
     inkscape:cx="119.28"
     inkscape:cy="124.29546"
     inkscape:document-units="px"
     inkscape:current-layer="layer1"
     inkscape:document-rotation="0"
     showgrid="false"
     inkscape:showpageshadow="false"
     inkscape:window-width="3438"
     inkscape:window-height="1346"
     inkscape:window-x="0"
     inkscape:window-y="23"
     inkscape:window-maximized="0"
     inkscape:pagecheckerboard="true"
     units="px" />
  <metadata
     id="metadata5">
    <rdf:RDF>
      <cc:Work
         rdf:about="">
        <dc:format>image/svg+xml</dc:format>
        <dc:type
           rdf:resource="http://purl.org/dc/dcmitype/StillImage" />
        <dc:title></dc:title>
      </cc:Work>
    </rdf:RDF>
  </metadata>
  <g
     inkscape:label="Layer 1"
     inkscape:groupmode="layer"
     id="layer1"
     transform="translate(-2.0211755,-73.157987)">
    <rect
       style="fill:#ffffff;fill-opacity:1;stroke:#000000;stroke-width:0.374594;stroke-linejoin:miter;stroke-miterlimit:4;stroke-dasharray:none"
       id="rect10"
       width="42.178864"
       height="41.836784"
       x="2.2084725"
       y="73.345284"
       ry="3.4235494" />
    <path
       fill="currentColor"
       d="m 42.312603,105.37202 h -0.16537 v 0.41341 c 0,0.13643 -0.11162,0.24805 -0.24804,0.24805 h -0.82683 c -0.13642,0 -0.24804,-0.11162 -0.24804,-0.24805 v -0.41341 h -6.61459 v 0.41341 c 0,0.13643 -0.11162,0.24805 -0.24804,0.24805 h -0.82682 c -0.13643,0 -0.24805,-0.11162 -0.24805,-0.24805 v -0.41341 h -0.16537 c -0.27492,0 -0.49609,0.22117 -0.49609,0.49609 v 6.94532 c 0,0.27492 0.22117,0.49609 0.49609,0.49609 h 0.16537 v -0.41341 c 0,-0.13643 0.11162,-0.24805 0.24805,-0.24805 h 0.82682 c 0.13642,0 0.24804,0.11162 0.24804,0.24805 v 0.41341 h 6.61459 v -0.41341 c 0,-0.13643 0.11162,-0.24805 0.24804,-0.24805 h 0.82683 c 0.13642,0 0.24804,0.11162 0.24804,0.24805 v 0.41341 h 0.16537 c 0.27492,0 0.49609,-0.22117 0.49609,-0.49609 v -6.94532 c 0,-0.27492 -0.22117,-0.49609 -0.49609,-0.49609 z m -8.10287,6.36654 c 0,0.13642 -0.11162,0.24804 -0.24804,0.24804 h -0.82682 c -0.13643,0 -0.24805,-0.11162 -0.24805,-0.24804 v -0.82683 c 0,-0.13642 0.11162,-0.24804 0.24805,-0.24804 h 0.82682 c 0.13642,0 0.24804,0.11162 0.24804,0.24804 z m 0,-1.98438 c 0,0.13643 -0.11162,0.24805 -0.24804,0.24805 h -0.82682 c -0.13643,0 -0.24805,-0.11162 -0.24805,-0.24805 v -0.82682 c 0,-0.13643 0.11162,-0.24805 0.24805,-0.24805 h 0.82682 c 0.13642,0 0.24804,0.11162 0.24804,0.24805 z m 0,-1.98437 c 0,0.13642 -0.11162,0.24804 -0.24804,0.24804 h -0.82682 c -0.13643,0 -0.24805,-0.11162 -0.24805,-0.24804 v -0.82683 c 0,-0.13642 0.11162,-0.24804 0.24805,-0.24804 h 0.82682 c 0.13642,0 0.24804,0.11162 0.24804,0.24804 z m 5.6224,4.29948 c 0,0.13642 -0.11162,0.24804 -0.24805,0.24804 h -4.13411 c -0.13643,0 -0.24805,-0.11162 -0.24805,-0.24804 v -1.98438 c 0,-0.13642 0.11162,-0.24805 0.24805,-0.24805 h 4.13411 c 0.13643,0 0.24805,0.11163 0.24805,0.24805 z m 0,-3.47266 c 0,0.13643 -0.11162,0.24805 -0.24805,0.24805 h -4.13411 c -0.13643,0 -0.24805,-0.11162 -0.24805,-0.24805 v -1.98438 c 0,-0.13642 0.11162,-0.24804 0.24805,-0.24804 h 4.13411 c 0.13643,0 0.24805,0.11162 0.24805,0.24804 z m 2.3151,3.14193 c 0,0.13642 -0.11162,0.24804 -0.24804,0.24804 h -0.82683 c -0.13642,0 -0.24804,-0.11162 -0.24804,-0.24804 v -0.82683 c 0,-0.13642 0.11162,-0.24804 0.24804,-0.24804 h 0.82683 c 0.13642,0 0.24804,0.11162 0.24804,0.24804 z m 0,-1.98438 c 0,0.13643 -0.11162,0.24805 -0.24804,0.24805 h -0.82683 c -0.13642,0 -0.24804,-0.11162 -0.24804,-0.24805 v -0.82682 c 0,-0.13643 0.11162,-0.24805 0.24804,-0.24805 h 0.82683 c 0.13642,0 0.24804,0.11162 0.24804,0.24805 z m 0,-1.98437 c 0,0.13642 -0.11162,0.24804 -0.24804,0.24804 h -0.82683 c -0.13642,0 -0.24804,-0.11162 -0.24804,-0.24804 v -0.82683 c 0,-0.13642 0.11162,-0.24804 0.24804,-0.24804 h 0.82683 c 0.13642,0 0.24804,0.11162 0.24804,0.24804 z"
       id="path931"
       style="stroke-width:0.0206705" />
  </g>
</svg>
