<?xml version="1.0" encoding="UTF-8" standalone="no"?>
<svg
   xmlns:dc="http://purl.org/dc/elements/1.1/"
   xmlns:cc="http://creativecommons.org/ns#"
   xmlns:rdf="http://www.w3.org/1999/02/22-rdf-syntax-ns#"
   xmlns:svg="http://www.w3.org/2000/svg"
   xmlns="http://www.w3.org/2000/svg"
   xmlns:sodipodi="http://sodipodi.sourceforge.net/DTD/sodipodi-0.dtd"
   xmlns:inkscape="http://www.inkscape.org/namespaces/inkscape"
   width="320.12329"
   height="160.12329"
   viewBox="0 0 84.699285 42.365953"
   version="1.1"
   id="svg8"
   inkscape:version="1.0.1 (c497b03c, 2020-09-10)"
   sodipodi:docname="period-dark.svg">
  <defs
     id="defs2" />
  <sodipodi:namedview
     id="base"
     pagecolor="#ffffff"
     bordercolor="#666666"
     borderopacity="1.0"
     inkscape:pageopacity="0"
     inkscape:pageshadow="2"
     inkscape:zoom="0.9899495"
     inkscape:cx="118.92286"
     inkscape:cy="6.9968627"
     inkscape:document-units="px"
     inkscape:current-layer="layer1"
     inkscape:document-rotation="0"
     showgrid="false"
     inkscape:showpageshadow="false"
     inkscape:window-width="1558"
     inkscape:window-height="943"
     inkscape:window-x="0"
     inkscape:window-y="23"
     inkscape:window-maximized="0"
     inkscape:pagecheckerboard="true"
     units="px" />
  <metadata
     id="metadata5">
    <rdf:RDF>
      <cc:Work
         rdf:about="">
        <dc:format>image/svg+xml</dc:format>
        <dc:type
           rdf:resource="http://purl.org/dc/dcmitype/StillImage" />
        <dc:title />
      </cc:Work>
    </rdf:RDF>
  </metadata>
  <g
     inkscape:label="Layer 1"
     inkscape:groupmode="layer"
     id="layer1"
     transform="translate(-2.0211755,-73.0807)">
    <rect
       style="fill:#ffffff;fill-opacity:1;stroke:#000000;stroke-width:0.529167;stroke-linejoin:miter;stroke-miterlimit:4;stroke-dasharray:none"
       id="rect10"
       width="84.17012"
       height="41.836784"
       x="2.285759"
       y="73.345284"
       ry="3.4235494" />
    <path
       fill="currentColor"
       d="m 84.089807,105.37299 c -0.970916,0.0551 -2.900715,0.25566 -4.092038,0.98491 -0.08221,0.0503 -0.128809,0.1398 -0.128809,0.23334 v 6.44688 c 0,0.20464 0.223772,0.33398 0.412468,0.23901 1.225699,-0.61692 2.998335,-0.78524 3.874821,-0.83131 0.29925,-0.0157 0.53188,-0.25566 0.53188,-0.54321 v -5.9857 c 1.93e-4,-0.31377 -0.271966,-0.56235 -0.598322,-0.54392 z m -4.916433,0.98491 c -1.191152,-0.72925 -3.120943,-0.92963 -4.091864,-0.98491 -0.32636,-0.0185 -0.598497,0.23015 -0.598497,0.54392 v 5.98587 c 0,0.28773 0.232626,0.52763 0.53188,0.54322 0.876839,0.0461 2.650362,0.21457 3.876061,0.83184 0.188159,0.0948 0.411222,-0.0344 0.411222,-0.23848 v -6.4513 c 0,-0.0937 -0.04645,-0.17966 -0.128802,-0.23016 z"
       id="path899"
       style="stroke-width:0.0177175" />
    <ellipse
       style="fill:#000000;fill-opacity:1;stroke:#000000;stroke-width:0.529167;stroke-linejoin:miter;stroke-miterlimit:4;stroke-dasharray:none"
       id="path910"
       cx="7.1209559"
       cy="78.415306"
       rx="3.7907641"
       ry="3.7907643" />
  </g>
</svg>
